#!OML:ASF \\Waltz\H\Terrain\Patient Classification 1\Animal2\Wednesday\Animal2.ASF
:FULLY-SPECIFIED
:DEGREES
1641
root -5.72746 17.386 -28.5671 1.75774 10.1697 1.14354
lowerback 3.85954 -1.38467 3.90612
upperback -5.84405 -1.31503 3.0147
thorax -8.34049 -0.772596 1.1381
lowerneck 9.89542 11.8314 17.4771
upperneck -5.05522 17.3113 -13.3184
head -0.387981 8.86913 -6.9105
rclavicle 3.57812e-014 4.77083e-014
rhumerus -49.0259 -35.3233 -10.9497
rradius 54.6405
rwrist 22.8829
rhand 17.6587 26.02
rfingers 7.12502
rthumb 42.3481 1.54766
lclavicle 3.57812e-014 4.77083e-014
lhumerus -56.1807 20.1476 19.4377
lradius 55.4209
lwrist 12.8693
lhand 9.72803 32.0795
lfingers 7.12502
lthumb 34.8683 -301.334
rfemur -9.95075 6.24584 16.5551
rtibia 32.0821
rfoot -26.2102 -2.08313
rtoes 23.6016
lfemur -12.1175 -1.91796 -10.5404
ltibia 26.4432
lfoot -16.4065 -0.218142
ltoes -34.3559
1642
root -5.72432 17.379 -28.5649 1.71812 10.2148 1.28832
lowerback 4.05593 -1.37412 3.87303
upperback -6.01984 -1.2927 2.88743
thorax -8.64942 -0.767314 1.03172
lowerneck 9.92769 11.5709 17.8233
upperneck -4.80721 17.0179 -13.495
head -0.319446 8.73079 -7.01784
rclavicle -2.76311e-014 -1.11319e-014
rhumerus -49.3919 -34.7775 -10.8397
rradius 54.9308
rwrist 22.7277
rhand 19.5321 26.0139
rfingers 7.12502
rthumb 44.0989 2.16803
lclavicle -2.76311e-014 -1.11319e-014
lhumerus -55.9189 19.087 19.7931
lradius 55.4663
lwrist 13.6096
lhand 10.4716 33.2129
lfingers 7.12502
lthumb 35.5735 -300.367
rfemur -9.95285 6.04287 16.3668
rtibia 32.2384
rfoot -26.3114 -1.64899
rtoes 23.9759
lfemur -12.0499 -1.87384 -10.722
ltibia 26.4589
lfoot -16.3751 -0.0341693
ltoes -35.3374
1643
root -5.72566 17.3706 -28.5799 1.77236 10.0801 1.31972
lowerback 4.10396 -1.29256 3.80402
upperback -5.74951 -1.19956 2.8808
thorax -8.37923 -0.714387 1.0447
lowerneck 9.66634 11.7376 17.7607
upperneck -5.44485 17.1512 -13.6342
head -0.436637 8.78167 -7.05113
rclavicle -5.76476e-015 -1.43125e-014
rhumerus -49.294 -36.1004 -10.44
rradius 54.7517
rwrist 23.2642
rhand 21.6309 26.6086
rfingers 7.12502
rthumb 46.0513 3.53541
lclavicle -5.76476e-015 -1.43125e-014
lhumerus -55.5148 19.7946 19.7117
lradius 55.336
lwrist 13.1545
lhand 13.0905 34.0278
lfingers 7.12502
lthumb 38.0513 -300.187
rfemur -10.3255 6.0543 16.3028
rtibia 32.6134
rfoot -26.4392 -1.35835
rtoes 24.4153
lfemur -12.1688 -1.72032 -10.7464
ltibia 26.5027
lfoot -16.3119 0.043328
ltoes -35.5818
1644
root -5.72684 17.3591 -28.5839 1.91765 9.98698 1.54196
lowerback 3.92197 -1.22769 3.56346
upperback -5.58309 -1.1557 2.81122
thorax -8.0848 -0.6783 1.08968
lowerneck 10.0159 12.1487 16.8336
upperneck -6.47285 17.6185 -12.8181
head -0.883087 8.98181 -6.74032
rclavicle -1.17283e-014 -2.22639e-014
rhumerus -49.6064 -38.7154 -8.96216
rradius 54.2663
rwrist 25.4596
rhand 24.265 29.1236
rfingers 7.12502
rthumb 48.4855 7.14049
lclavicle -1.17283e-014 -2.22639e-014
lhumerus -55.2251 20.1645 19.5576
lradius 55.2218
lwrist 12.5933
lhand 16.0955 34.7252
lfingers 7.12502
lthumb 40.8818 -300.321
rfemur -10.7263 6.0482 16.0342
rtibia 33.1436
rfoot -26.6968 -1.16256
rtoes 24.8935
lfemur -12.3635 -1.50104 -10.9772
ltibia 26.6536
lfoot -16.4706 0.00178756
ltoes -35.6825
1645
root -5.72232 17.3438 -28.5815 2.12545 10.1651 2.16978
lowerback 3.91986 -1.29636 3.01423
upperback -5.77138 -1.29811 2.61943
thorax -8.27655 -0.72361 1.21524
lowerneck 9.84541 11.8792 17.4224
upperneck -5.69641 17.3184 -13.567
head -0.547958 8.86847 -7.00216
rclavicle 5.76476e-015 2.54444e-014
rhumerus -49.3975 -38.0124 -9.06394
rradius 54.0672
rwrist 25.1335
rhand 25.696 30.1542
rfingers 7.12502
rthumb 49.7994 8.82677
lclavicle 5.76476e-015 2.54444e-014
lhumerus -55.2265 19.4264 19.6722
lradius 55.3572
lwrist 13.2417
lhand 17.2581 35.8594
lfingers 7.12502
lthumb 41.9727 -299.541
rfemur -11.0153 5.65571 15.2861
rtibia 33.68
rfoot -26.9505 -0.916626
rtoes 25.0181
lfemur -12.6374 -1.49089 -11.6862
ltibia 26.9371
lfoot -16.7364 0.0224258
ltoes -36.1582
